<svg width="35" height="35" viewBox="0 0 35 35" fill="none" xmlns="http://www.w3.org/2000/svg">
<g id="Group">
<path id="Vector" d="M19.8499 17.203C19.8499 18.6646 18.6648 19.8497 17.2033 19.8497C15.7417 19.8497 14.5566 18.6646 14.5566 17.203C14.5566 15.7415 15.7417 14.5564 17.2033 14.5564C18.6648 14.5564 19.8499 15.7415 19.8499 17.203Z" fill="white"/>
<path id="Vector_2" d="M17.2031 0C7.67524 0 0 7.67524 0 17.2031C0 26.731 7.67524 34.4062 17.2031 34.4062C26.731 34.4062 34.4062 26.731 34.4062 17.2031C34.4062 7.67524 26.731 0 17.2031 0ZM7.9399 9.26322C7.9399 8.46923 8.46923 7.9399 9.26322 7.9399C10.0572 7.9399 10.5865 8.46923 10.5865 9.26322C10.5865 10.0572 10.0572 10.5865 9.26322 10.5865C8.46923 10.5865 7.9399 10.0572 7.9399 9.26322ZM17.3355 23.952L10.0572 25.937C9.13089 26.2017 8.20457 25.2754 8.46923 24.349L10.4542 17.0708C11.3805 13.8948 13.7625 11.3805 16.9385 10.5865L24.2167 8.60156C25.143 8.3369 26.0693 9.26322 25.8047 10.1895L23.8197 17.4678C23.0257 20.5114 20.5114 23.0257 17.3355 23.952ZM25.143 26.4663C24.349 26.4663 23.8197 25.937 23.8197 25.143C23.8197 24.349 24.349 23.8197 25.143 23.8197C25.937 23.8197 26.4663 24.349 26.4663 25.143C26.4663 25.937 25.937 26.4663 25.143 26.4663Z" fill="white"/>
</g>
</svg>
