<svg width="89" height="13" viewBox="0 0 89 13" fill="none" xmlns="http://www.w3.org/2000/svg">
<g id="Group 73">
<path id="Vector" d="M12.9776 4.91636C12.9229 4.74006 12.7776 4.61141 12.6028 4.58476L8.67358 3.98552L6.91662 0.249428C6.76023 -0.0831426 6.24018 -0.0831426 6.08368 0.249428L4.32672 3.98552L0.397482 4.58468C0.222649 4.61132 0.0773596 4.73998 0.0227324 4.91627C-0.0318843 5.09279 0.0137162 5.28626 0.140153 5.4159L2.98321 8.32397L2.31195 12.4304C2.28221 12.6131 2.35392 12.798 2.49673 12.9069C2.64006 13.0159 2.82951 13.0304 2.9857 12.944L6.49999 11.0051L10.0143 12.944C10.1704 13.0299 10.3598 13.0161 10.5032 12.9069C10.6461 12.798 10.7177 12.6131 10.688 12.4304L10.0168 8.32397L12.8598 5.4159C12.9864 5.28626 13.0319 5.09288 12.9773 4.91639L12.9776 4.91636Z" fill="#FFB800"/>
<path id="Vector_2" d="M31.9776 4.91636C31.9229 4.74006 31.7776 4.61141 31.6028 4.58476L27.6736 3.98552L25.9166 0.249428C25.7602 -0.0831426 25.2402 -0.0831426 25.0837 0.249428L23.3267 3.98552L19.3975 4.58468C19.2226 4.61132 19.0774 4.73998 19.0227 4.91627C18.9681 5.09279 19.0137 5.28626 19.1402 5.4159L21.9832 8.32397L21.312 12.4304C21.2822 12.6131 21.3539 12.798 21.4967 12.9069C21.6401 13.0159 21.8295 13.0304 21.9857 12.944L25.5 11.0051L29.0143 12.944C29.1704 13.0299 29.3598 13.0161 29.5032 12.9069C29.6461 12.798 29.7177 12.6131 29.688 12.4304L29.0168 8.32397L31.8598 5.4159C31.9864 5.28626 32.0319 5.09288 31.9773 4.91639L31.9776 4.91636Z" fill="#FFB800"/>
<path id="Vector_3" d="M50.9776 4.91636C50.9229 4.74006 50.7776 4.61141 50.6028 4.58476L46.6736 3.98552L44.9166 0.249428C44.7602 -0.0831426 44.2402 -0.0831426 44.0837 0.249428L42.3267 3.98552L38.3975 4.58468C38.2226 4.61132 38.0774 4.73998 38.0227 4.91627C37.9681 5.09279 38.0137 5.28626 38.1402 5.4159L40.9832 8.32397L40.312 12.4304C40.2822 12.6131 40.3539 12.798 40.4967 12.9069C40.6401 13.0159 40.8295 13.0304 40.9857 12.944L44.5 11.0051L48.0143 12.944C48.1704 13.0299 48.3598 13.0161 48.5032 12.9069C48.6461 12.798 48.7177 12.6131 48.688 12.4304L48.0168 8.32397L50.8598 5.4159C50.9864 5.28626 51.0319 5.09288 50.9773 4.91639L50.9776 4.91636Z" fill="#FFB800"/>
<path id="Vector_4" d="M69.9776 4.91636C69.9229 4.74006 69.7776 4.61141 69.6028 4.58476L65.6736 3.98552L63.9166 0.249428C63.7602 -0.0831426 63.2402 -0.0831426 63.0837 0.249428L61.3267 3.98552L57.3975 4.58468C57.2226 4.61132 57.0774 4.73998 57.0227 4.91627C56.9681 5.09279 57.0137 5.28626 57.1402 5.4159L59.9832 8.32397L59.312 12.4304C59.2822 12.6131 59.3539 12.798 59.4967 12.9069C59.6401 13.0159 59.8295 13.0304 59.9857 12.944L63.5 11.0051L67.0143 12.944C67.1704 13.0299 67.3598 13.0161 67.5032 12.9069C67.6461 12.798 67.7177 12.6131 67.688 12.4304L67.0168 8.32397L69.8598 5.4159C69.9864 5.28626 70.0319 5.09288 69.9773 4.91639L69.9776 4.91636Z" fill="#FFB800"/>
<path id="Vector_5" d="M78.8012 12.5103L78.7996 12.5101L78.7686 12.5506L78.7684 12.5509L78.4967 12.9069L78.8007 12.5099C78.8008 12.5101 78.801 12.5102 78.8012 12.5103ZM78.8012 12.5103C78.8054 12.5139 78.8061 12.5164 78.8058 12.5155C78.8055 12.5146 78.8051 12.5128 78.8054 12.5107L78.8054 12.511L78.8012 12.5103ZM76.4983 5.06696L76.4981 5.06678M76.4983 5.06696L76.4729 5.07896M76.4983 5.06696C76.4982 5.0669 76.4981 5.06684 76.4981 5.06678M76.4983 5.06696L76.4981 5.06678M76.4981 5.06678L76.4977 5.06636L76.4916 5.07227C76.4872 5.075 76.4809 5.07773 76.4729 5.07896M76.4729 5.07896L76.487 5.07681L76.4729 5.07896ZM84.5982 4.47981L88.4948 5.07407L85.6592 7.97444L85.4825 8.15518L85.5233 8.40464L86.1876 12.4686L82.7415 10.5673L82.5 10.434L82.2585 10.5673L78.8123 12.4686L79.4767 8.40464L79.5174 8.15518L79.3407 7.97444L76.5052 5.07404L80.4021 4.47981L80.6657 4.43961L80.7792 4.1983L82.5001 0.538752L84.2211 4.1983L84.3346 4.43961L84.5982 4.47981ZM88.5275 5.07905C88.5274 5.07905 88.5274 5.07904 88.5273 5.07903L88.5274 5.07905L88.5275 5.07905Z" stroke="#FFB800"/>
</g>
</svg>
